<svg xmlns="http://www.w3.org/2000/svg" width="387.371" height="189.353" viewBox="0 0 387.371 189.353">
  <g id="Logo" transform="translate(-6.53 18.603)">
    <g id="Group_1" data-name="Group 1">
      <path id="Path_1" data-name="Path 1" d="M62.3,55.81c0-15.06.19-33.1.48-43.15-.18.04-.36.08-.54.11-3.02,19.14-9.97,52.21-15.84,75.4-3.96-.18-7.92-.38-11.86-.57C30.21,68.09,23.23,36.96,20.49,23.01l-.54.15c.57,8.45.85,24.48.85,37.28V86.87q-6.24-.345-12.45-.71V17.1q10.1-3.72,20.31-7.04c4.8,16.26,10.81,43.6,12.69,56.11h.11c1.45-10.43,9.17-42.01,14.26-64.14Q65.65-.655,75.66-2.95V89.42q-6.705-.255-13.37-.52V55.83Z" fill="#fe6553" stroke="#fe6553" stroke-miterlimit="10" stroke-width="3"/>
      <path id="Path_2" data-name="Path 2" d="M102.23,66.84q-2.43,11.775-4.85,23.3-6.885-.21-13.74-.45c.88-2.41,19.96-92.84,20.99-98.52q9.075-1.59,18.19-2.87c7.41,33.13,14.83,67.61,22.26,102.93q-7.425-.12-14.83-.27Q127.625,78.6,125,66.42q-11.415.18-22.78.41ZM122.24,49.2c-4.3-20.56-7.28-34.66-8.85-43.88a.375.375,0,0,0-.11.01c-1.67,11.43-4.8,27.47-8.39,44.72q8.655-.465,17.35-.85Z" fill="#fe6553" stroke="#fe6553" stroke-miterlimit="10" stroke-width="3"/>
      <path id="Path_3" data-name="Path 3" d="M153.68,91.36V-15.16q9.045-.765,18.09-1.22c20.66,65.13,24.02,76.48,25.09,81.46h.19c-.7-12.92-.8-30.68-.8-48.46V-17.09q6.48-.045,12.96.06V91.67q-8.7.03-17.39,0c-22.2-72.86-24.66-80.72-25.69-84.85h-.1c.51,13.57.57,32.17.57,51.38V91.51Q160.135,91.45,153.68,91.36Z" fill="#fe6553" stroke="#fe6553" stroke-miterlimit="10" stroke-width="3"/>
      <path id="Path_4" data-name="Path 4" d="M237.7-15.84V52.42c0,12.12,2.17,23.22,12.88,23.21,10.62-.02,12.56-10.33,12.56-22.62V-13.53q7.125.81,14.24,1.81V53.95c0,21.36-6.12,38.42-27.09,38.92-20.64.37-26.8-16.92-26.8-40.02V-16.62q7.11.3,14.21.78Z" fill="#fe6553" stroke="#fe6553" stroke-miterlimit="10" stroke-width="3"/>
      <path id="Path_5" data-name="Path 5" d="M335.66,50.01q-14.775-1.29-29.71-2.29V73.83q16.485.1,32.79.25-.84,7.38-1.67,14.85-22.23.915-44.79,1.52V-9.42q22.455,3.78,44.62,9.4V14.96q-15.39-3.15-30.95-5.57V31.36q14.925,1.575,29.71,3.58V50Z" fill="#fe6553" stroke="#fe6553" stroke-miterlimit="10" stroke-width="3"/>
      <path id="Path_6" data-name="Path 6" d="M348.62,3.1q6.9,1.92,13.75,4.01V74.3q15.015.15,29.83.33-.735,5.76-1.48,11.62-20.835,1.23-42.1,2.18V3.1Z" fill="#fe6553" stroke="#fe6553" stroke-miterlimit="10" stroke-width="3"/>
    </g>
    <g id="Group_2" data-name="Group 2">
      <path id="Path_7" data-name="Path 7" d="M8.03,89.13c3.02.24,6.04.46,9.07.69v19.24q8.145,1.47,16.37,2.82V90.97c3.06.2,6.12.4,9.2.59V146.7q-4.6-1.35-9.2-2.78V120.8q-8.22-1.68-16.37-3.53v21.27q-4.545-1.575-9.07-3.23V89.12Z" fill="#fe6553" stroke="#fe6553" stroke-miterlimit="10" stroke-width="3"/>
      <path id="Path_8" data-name="Path 8" d="M91.78,126.1c0,18.67-6.41,32.55-20.81,28.98-14.08-3.63-20.02-18.91-20.03-34.92,0-13.88,6.09-28.25,20.67-27.79,13.82.48,20.17,16.23,20.17,33.73Zm-31.27-4.36c0,11.71,3.61,21.93,10.84,23.52,7.94,1.7,10.83-7.13,10.82-20.34,0-11.65-2.84-22.09-10.98-22.66-7.54-.52-10.68,8.18-10.68,19.48Z" fill="#fe6553" stroke="#fe6553" stroke-miterlimit="10" stroke-width="3"/>
      <path id="Path_9" data-name="Path 9" d="M139.41,130.48c0,20.26-6.47,36.01-21.06,33.78-14.27-2.31-20.32-19.11-20.32-37.58,0-16.03,6.19-32.76,20.97-32.47,14,.31,20.41,17.29,20.41,36.28Zm-31.66-2.73c0,13.3,3.67,24.49,10.99,25.5,8.05,1.07,10.96-8.92,10.96-23.45,0-12.81-2.88-24.2-11.12-24.55-7.65-.33-10.83,9.67-10.83,22.5Z" fill="#fe6553" stroke="#fe6553" stroke-miterlimit="10" stroke-width="3"/>
      <path id="Path_10" data-name="Path 10" d="M147.69,166.8V95.85q6.045.12,12.11.21c13.83,44.09,16.08,51.59,16.79,54.97h.13c-.47-8.63-.54-20.46-.54-32.31V96.25c2.89.03,5.79.05,8.68.06v72.72q-5.82-.165-11.64-.44c-14.86-49.16-16.51-54.62-17.19-57.4h-.07c.34,9.05.38,21.41.38,34.19v22.15c-2.88-.23-5.77-.47-8.65-.74Z" fill="#fe6553" stroke="#fe6553" stroke-miterlimit="10" stroke-width="3"/>
      <path id="Path_11" data-name="Path 11" d="M203.03,151.93q-1.65,8.67-3.29,17.32c-3.12,0-6.23-.03-9.35-.09.61-2.76,13.58-69.56,14.27-72.8q6.15,0,12.3-.05,7.5,36.3,14.99,72.04c-3.32.19-6.65.35-9.97.48q-1.77-8.55-3.54-17.13c-5.13.14-10.27.21-15.41.24Zm13.54-12.44c-2.9-14.68-4.92-25.09-5.98-31.88h-.08c-1.13,8.1-3.25,19.48-5.68,32.02,3.91-.02,7.83-.07,11.74-.15Z" fill="#fe6553" stroke="#fe6553" stroke-miterlimit="10" stroke-width="3"/>
      <path id="Path_12" data-name="Path 12" d="M237.73,96.1q4.665-.06,9.31-.15v32.91c4.96-10,11.91-23.78,16.69-33.26q5.64-.135,11.28-.3c-5.27,9.41-10.54,19.04-15.82,28.79,5.6,13.7,11.2,27.08,16.79,40.02q-5.64.765-11.28,1.42-6-15.5-12-31.56-2.79,4.875-5.59,9.79v23.53c-3.12.26-6.25.5-9.37.71V96.1Z" fill="#fe6553" stroke="#fe6553" stroke-miterlimit="10" stroke-width="3"/>
      <path id="Path_13" data-name="Path 13" d="M280.04,95.15q4.635-.135,9.25-.3v31.04c4.92-9.68,11.82-22.8,16.55-31.66q5.6-.225,11.17-.48c-5.21,8.73-10.44,17.8-15.67,27.13,5.55,12.53,11.1,24.53,16.62,35.89q-5.58,1.2-11.17,2.28-5.94-13.845-11.9-28.62-2.775,4.725-5.55,9.52v22.19q-4.65.75-9.31,1.42V95.16Z" fill="#fe6553" stroke="#fe6553" stroke-miterlimit="10" stroke-width="3"/>
      <path id="Path_14" data-name="Path 14" d="M350.83,123.93q-9.84,1.8-19.77,3.37v16.34q10.95-2.28,21.82-4.95-.555,4.83-1.11,9.71-14.8,4.155-29.79,7.49V93.52q14.91-.705,29.68-1.59v9.52q-10.26.99-20.59,1.85v13.76q9.915-1.245,19.77-2.69v9.56Z" fill="#fe6553" stroke="#fe6553" stroke-miterlimit="10" stroke-width="3"/>
      <path id="Path_15" data-name="Path 15" d="M368.48,121.71v21.72c-3,.94-6,1.86-9.02,2.75V91.45q9.2-.585,18.31-1.23c8.44-.52,14.43,3.36,14.43,11.43a13.772,13.772,0,0,1-6.92,12.32c4.42.91,6,4.13,6,9.89v1.21a79.085,79.085,0,0,0,.59,10.42c-2.91,1.06-5.82,2.09-8.75,3.1-.64-1.82-.83-5.06-.83-11.09v-1.29c0-5.59-1.86-7.11-7.71-5.83q-3.045.675-6.11,1.32Zm0-8.51q3.42-.585,6.83-1.2c4.34-.79,7.9-2.75,7.9-8.12,0-4.49-2.98-5.8-6.64-5.4q-4.035.45-8.09.89V113.2Z" fill="#fe6553" stroke="#fe6553" stroke-miterlimit="10" stroke-width="3"/>
    </g>
  </g>
</svg>
